<svg viewBox="0 0 94 113" xmlns="http://www.w3.org/2000/svg" fill-rule="evenodd" clip-rule="evenodd"
    stroke-linejoin="round" stroke-miterlimit="2">
    <g fill-rule="nonzero">
        <path
            d="M87.254 14.82C76.854-.065 56.313-4.48 41.462 4.985L15.38 21.61A29.934 29.934 0 001.861 41.652a31.52 31.52 0 003.107 20.231A29.98 29.98 0 00.492 73.066a31.897 31.897 0 005.447 24.116c10.4 14.887 30.942 19.3 45.791 9.835l26.083-16.624A29.934 29.934 0 0091.332 70.35c1.243-6.9.15-14.022-3.106-20.232A29.995 29.995 0 0092.7 38.936a31.889 31.889 0 00-5.447-24.116"
            fill="currentColor" />
        <path
            d="M38.914 98.583c-8.388 2.18-17.297-1.122-22.237-8.243a19.182 19.182 0 01-3.276-14.5c.151-.825.359-1.639.623-2.435l.491-1.5 1.337.981a33.646 33.646 0 0010.2 5.1l.969.294-.089.968a5.842 5.842 0 001.052 3.878 6.25 6.25 0 006.7 2.485 5.752 5.752 0 001.6-.7l26.084-16.629a5.429 5.429 0 002.45-3.63 5.796 5.796 0 00-.988-4.372 6.255 6.255 0 00-6.7-2.487 5.71 5.71 0 00-1.6.7l-9.954 6.345a19.046 19.046 0 01-5.3 2.326c-8.388 2.18-17.297-1.122-22.237-8.243a19.178 19.178 0 01-3.277-14.5 18 18 0 018.138-12.05l26.081-16.623a19.012 19.012 0 015.3-2.329c8.388-2.18 17.297 1.122 22.237 8.243a19.186 19.186 0 013.277 14.5 18.488 18.488 0 01-.627 2.44l-.491 1.5-1.336-.98a33.634 33.634 0 00-10.2-5.1l-.97-.294.09-.968a5.86 5.86 0 00-1.052-3.878 6.252 6.252 0 00-6.695-2.485 5.722 5.722 0 00-1.6.7L30.827 43.72a5.429 5.429 0 00-2.449 3.63 5.793 5.793 0 00.986 4.372 6.257 6.257 0 006.7 2.487 5.781 5.781 0 001.6-.7l9.952-6.342a18.98 18.98 0 015.3-2.328c8.385-2.18 17.292 1.121 22.232 8.238a19.178 19.178 0 013.277 14.5 18.01 18.01 0 01-8.13 12.054L44.214 96.254a19.012 19.012 0 01-5.3 2.33"
            fill="white" />
    </g>
</svg>