<svg viewBox="0 0 485 61" xmlns="http://www.w3.org/2000/svg" fill-rule="evenodd" clip-rule="evenodd"
    stroke-linejoin="round" stroke-miterlimit="2">
    <path
        d="M385.98 59.024l-16.328-30.338-10.28 12.434v17.904h-8.62V1h8.62V29.1L381.753 1h9.947L375.456 21.39l20.639 37.633H385.98zm28.762 0V1h8.62v58.025h-8.62zM468.288 9.29v49.735h-8.621V9.29h-16.411V.999h41.443v8.29h-16.411z"
        fill="currentColor" fill-rule="nonzero" opacity='0.5' />
    <path
        d="M21.136 60.019a23.424 23.424 0 01-13.344-3.772A19.336 19.336 0 010 45.927l8.123-2.984a14.987 14.987 0 005.306 6.42 13.976 13.976 0 008.04 2.363c2.747.144 5.46-.678 7.667-2.321a8.056 8.056 0 002.86-6.631 7.268 7.268 0 00-.788-3.358 10.062 10.062 0 00-1.782-2.53 11.996 11.996 0 00-3.067-2.03c-1.382-.69-2.53-1.214-3.44-1.575-.912-.36-2.251-.844-4.02-1.45-2.21-.774-3.868-1.382-4.973-1.823a37.512 37.512 0 01-4.352-2.198 16.063 16.063 0 01-4.062-3.067 14.858 14.858 0 01-2.444-4.02c-2.344-5.7-.77-12.3 3.89-16.33C10.274 1.466 14.777.002 20.468 0c4.753 0 8.663 1.05 11.73 3.15a15.235 15.235 0 016.175 8.373l-7.957 2.652a9.264 9.264 0 00-3.855-4.269 12.94 12.94 0 00-6.755-1.617 10.416 10.416 0 00-6.508 1.823 6.125 6.125 0 00-2.361 5.14 5.363 5.363 0 001.823 3.979 12.51 12.51 0 003.813 2.57c1.327.552 3.345 1.298 6.052 2.237 1.656.609 2.885 1.065 3.687 1.368.803.302 1.977.814 3.523 1.533a24.46 24.46 0 013.564 1.945 31.124 31.124 0 012.902 2.363c1 .867 1.853 1.888 2.529 3.025a16.842 16.842 0 011.49 3.73c.424 1.525.634 3.102.623 4.684 0 5.417-1.85 9.658-5.554 12.724-3.703 3.066-8.453 4.602-14.253 4.609zm53.132-.995L54.374 1h9.285L76.838 41.45a62.86 62.86 0 011.824 6.632 62.038 62.038 0 011.823-6.632L93.498.999h9.2l-19.81 58.025h-8.62zm46.003 0V1h35.974v8.124h-27.353v15.915h17.655v8.124h-17.655V50.9h29.18v8.124h-37.801zm59.762 0V1h8.622v49.736h28.347v8.29h-36.97zm69.46-49.735v49.735h-8.621V9.29h-16.411V.999h41.444v8.29h-16.412zm34.23 49.735V1h35.974v8.124h-27.35v15.915h17.654v8.124h-17.654V50.9h29.18v8.124h-37.804z"
        fill="currentColor" fill-rule="nonzero" />
</svg>